<svg width="25" height="27" viewBox="0 0 25 27" fill="none" xmlns="http://www.w3.org/2000/svg">
<path d="M24.7569 11.3878H23.75V11.3359H12.5V16.3359H19.5644C18.5338 19.2466 15.7644 21.3359 12.5 21.3359C8.35812 21.3359 5 17.9778 5 13.8359C5 9.69406 8.35812 6.33594 12.5 6.33594C14.4119 6.33594 16.1513 7.05719 17.4756 8.23531L21.0112 4.69969C18.7787 2.61906 15.7925 1.33594 12.5 1.33594C5.59688 1.33594 0 6.93281 0 13.8359C0 20.7391 5.59688 26.3359 12.5 26.3359C19.4031 26.3359 25 20.7391 25 13.8359C25 12.9978 24.9137 12.1797 24.7569 11.3878Z" fill="#FFC107"/>
<path d="M1.44141 8.01781L5.54828 11.0297C6.65953 8.27844 9.35078 6.33594 12.5002 6.33594C14.412 6.33594 16.1514 7.05719 17.4758 8.23531L21.0114 4.69969C18.7789 2.61906 15.7927 1.33594 12.5002 1.33594C7.69891 1.33594 3.53516 4.04656 1.44141 8.01781Z" fill="#FF3D00"/>
<path d="M12.5002 26.3359C15.7289 26.3359 18.6627 25.1003 20.8808 23.0909L17.0121 19.8171C15.7571 20.7678 14.1971 21.3359 12.5002 21.3359C9.24895 21.3359 6.48832 19.2628 5.44832 16.3696L1.37207 19.5103C3.44082 23.5584 7.64207 26.3359 12.5002 26.3359Z" fill="#4CAF50"/>
<path d="M24.7569 11.3878H23.75V11.3359H12.5V16.3359H19.5644C19.0694 17.7341 18.17 18.9397 17.01 19.8178L17.0119 19.8166L20.8806 23.0903C20.6069 23.3391 25 20.0859 25 13.8359C25 12.9978 24.9137 12.1797 24.7569 11.3878Z" fill="#1976D2"/>
</svg>
