<svg width="25" height="26" viewBox="0 0 25 26" fill="none" xmlns="http://www.w3.org/2000/svg">
<path d="M12.5 0.445312C5.59625 0.445312 0 6.04156 0 12.9453C0 19.8491 5.59625 25.4453 12.5 25.4453C19.4037 25.4453 25 19.8491 25 12.9453C25 6.04156 19.4037 0.445312 12.5 0.445312Z" fill="url(#paint0_linear_1497_988)"/>
<path d="M14.1915 16.2584H17.4265L17.9346 12.9722H14.1915V11.1759C14.1915 9.81094 14.6377 8.60032 15.9146 8.60032H17.9665V5.73282C17.6059 5.68407 16.8434 5.57782 15.4027 5.57782C12.394 5.57782 10.6302 7.16657 10.6302 10.7866V12.9728H7.53711V16.2591H10.6296V25.2916C11.2421 25.3828 11.8627 25.4453 12.4996 25.4453C13.0752 25.4453 13.6371 25.3928 14.1915 25.3178V16.2584Z" fill="white"/>
<defs>
<linearGradient id="paint0_linear_1497_988" x1="3.74562" y1="4.19094" x2="22.8844" y2="23.3297" gradientUnits="userSpaceOnUse">
<stop stop-color="#2AA4F4"/>
<stop offset="1" stop-color="#007AD9"/>
</linearGradient>
</defs>
</svg>

