<svg width="20" height="20" viewBox="0 0 20 20" fill="none" xmlns="http://www.w3.org/2000/svg">
<g clip-path="url(#clip0_1313_74)">
<path fill-rule="evenodd" clip-rule="evenodd" d="M10 18.3338C12.2103 18.3338 14.33 17.4557 15.8929 15.8929C17.4557 14.33 18.3338 12.2103 18.3338 10C18.3338 7.78976 17.4557 5.67004 15.8929 4.10716C14.33 2.54428 12.2103 1.66626 10 1.66626C7.78976 1.66626 5.67004 2.54428 4.10716 4.10716C2.54428 5.67004 1.66626 7.78976 1.66626 10C1.66626 12.2103 2.54428 14.33 4.10716 15.8929C5.67004 17.4557 7.78976 18.3338 10 18.3338Z" fill="#D00E17" stroke="#D00E17" stroke-width="1.5" stroke-linecap="round" stroke-linejoin="round"/>
<path fill-rule="evenodd" clip-rule="evenodd" d="M10 5.72876C10.2486 5.72876 10.4871 5.82753 10.6629 6.00335C10.8387 6.17916 10.9375 6.41762 10.9375 6.66626V10C10.9375 10.2487 10.8387 10.4871 10.6629 10.6629C10.4871 10.8387 10.2486 10.9375 10 10.9375C9.75136 10.9375 9.5129 10.8387 9.33709 10.6629C9.16127 10.4871 9.0625 10.2487 9.0625 10V6.66626C9.0625 6.41762 9.16127 6.17916 9.33709 6.00335C9.5129 5.82753 9.75136 5.72876 10 5.72876Z" fill="white"/>
<path d="M10.8338 13.3337C10.8338 13.5549 10.7459 13.7669 10.5896 13.9233C10.4332 14.0797 10.2211 14.1675 10 14.1675C9.77889 14.1675 9.56682 14.0797 9.41046 13.9233C9.2541 13.7669 9.16626 13.5549 9.16626 13.3337C9.16626 13.1126 9.2541 12.9006 9.41046 12.7442C9.56682 12.5878 9.77889 12.5 10 12.5C10.2211 12.5 10.4332 12.5878 10.5896 12.7442C10.7459 12.9006 10.8338 13.1126 10.8338 13.3337Z" fill="white"/>
</g>
<defs>
<clipPath id="clip0_1313_74">
<rect width="20" height="20" fill="white"/>
</clipPath>
</defs>
</svg>
